<svg width="24" height="24" viewBox="0 0 24 24" fill="none" xmlns="http://www.w3.org/2000/svg">
<path d="M19.095 2.31001H18.0383V1.50001C18.0383 1.12726 17.736 0.825012 17.3633 0.825012C16.9905 0.825012 16.6883 1.12726 16.6883 1.50001V2.31001H7.31253V1.50001C7.31253 1.12726 7.01028 0.825012 6.63753 0.825012C6.26478 0.825012 5.96253 1.12726 5.96253 1.50001V2.31001H4.90503C3.24753 2.31001 1.90503 3.65251 1.90503 5.31001V7.53001H22.095V5.31001C22.095 3.65251 20.7525 2.31001 19.095 2.31001Z" fill="#4F56D3"/>
<path d="M1.90503 8.88V19.5C1.90503 21.1575 3.24753 22.5 4.90503 22.5H19.095C20.7525 22.5 22.095 21.1575 22.095 19.5V8.88H1.90503ZM17.049 14.8598C15.9 16.0508 14.0115 16.7618 11.997 16.7618C9.98553 16.7618 8.10003 16.0508 6.95028 14.8598C6.69078 14.592 6.69903 14.1638 6.96678 13.9058C7.23453 13.6463 7.66203 13.6553 7.92078 13.9223C8.82078 14.8545 10.344 15.411 11.9963 15.411C13.6515 15.411 15.177 14.8545 16.077 13.9223C16.3365 13.6553 16.7633 13.6463 17.031 13.9058C17.3003 14.1638 17.3085 14.5913 17.049 14.8598Z" fill="#4F56D3"/>
</svg>
