<svg width="24" height="24" viewBox="0 0 24 24" fill="none" xmlns="http://www.w3.org/2000/svg">
<path d="M19.215 11.52V11.5125H21.915L19.215 11.52Z" fill="#4F56D3"/>
<path d="M6.66006 6.72752C7.80456 6.72752 8.83131 7.40327 9.27531 8.45027L10.0261 10.1625H20.5651V3.45752C20.5651 2.62502 19.8901 1.95752 19.0651 1.95752H4.93506C4.11006 1.95752 3.43506 2.62502 3.43506 3.45752V6.72752H6.66006Z" fill="#4F56D3"/>
<path d="M21 11.5125H9.63C9.3375 11.5125 9.0675 11.34 8.9475 11.0625L8.0325 8.97751C7.8 8.43001 7.26 8.07751 6.66 8.07751H3C2.175 8.07751 1.5 8.74501 1.5 9.57751V20.5425C1.5 21.375 2.175 22.0425 3 22.0425H21C21.825 22.0425 22.5 21.375 22.5 20.5425V13.0125C22.5 12.1875 21.825 11.5125 21 11.5125ZM8.93775 18.9698H5.25C4.87725 18.9698 4.575 18.6675 4.575 18.2948C4.575 17.922 4.87725 17.6198 5.25 17.6198H8.93775C9.3105 17.6198 9.61275 17.922 9.61275 18.2948C9.61275 18.6675 9.3105 18.9698 8.93775 18.9698Z" fill="#4F56D3"/>
</svg>
