<svg width="24" height="24" viewBox="0 0 24 24" fill="none" xmlns="http://www.w3.org/2000/svg">
<path d="M18.2925 9.396C18.7058 9.396 19.11 9.45225 19.5 9.54975V4.5C19.5 2.8425 18.1575 1.5 16.5 1.5H7.97254V5.58C7.97254 6.77925 6.99679 7.755 5.79754 7.755H1.73254V19.5C1.73254 21.1575 3.07504 22.5 4.73254 22.5H16.5C18.1575 22.5 19.5 21.1575 19.5 19.5V19.071C19.1063 19.1715 18.7043 19.2413 18.2925 19.2413C16.9763 19.2413 15.7395 18.7297 14.8103 17.8005C13.8803 16.8705 13.3688 15.6337 13.3688 14.3182C13.3688 13.0027 13.881 11.7668 14.8103 10.8368C15.7395 9.9075 16.9755 9.396 18.2925 9.396ZM10.9748 16.9882H6.42379C6.05104 16.9882 5.74879 16.686 5.74879 16.3132C5.74879 15.9405 6.05104 15.6383 6.42379 15.6383H10.974C11.3468 15.6383 11.649 15.9405 11.649 16.3132C11.649 16.686 11.3475 16.9882 10.9748 16.9882ZM12.1943 13.6125H6.42679C6.05404 13.6125 5.75179 13.3103 5.75179 12.9375C5.75179 12.5647 6.05404 12.2625 6.42679 12.2625H12.1943C12.567 12.2625 12.8693 12.5647 12.8693 12.9375C12.8693 13.3103 12.567 13.6125 12.1943 13.6125Z" fill="#4F56D3"/>
<path d="M22.7453 17.817L21.2498 16.3215C21.6488 15.7342 21.8655 15.0435 21.8655 14.3182C21.8655 13.3642 21.4935 12.4665 20.8185 11.7907C19.425 10.398 17.157 10.398 15.7643 11.7907C15.0893 12.4657 14.7173 13.3635 14.7173 14.3175C14.7173 15.2722 15.0893 16.17 15.7643 16.845C16.461 17.5417 17.376 17.8905 18.2918 17.8905C18.9923 17.8905 19.6905 17.6827 20.2935 17.2747L21.7905 18.7717C21.9225 18.9037 22.095 18.9697 22.2675 18.9697C22.44 18.9697 22.6125 18.9037 22.7445 18.7717C23.0093 18.5085 23.0093 18.0802 22.7453 17.817ZM16.719 15.891C16.299 15.471 16.068 14.913 16.068 14.3182C16.068 13.7242 16.2998 13.1662 16.719 12.7462C17.1525 12.3127 17.7225 12.096 18.2918 12.096C18.861 12.096 19.431 12.3127 19.8645 12.7462C20.2845 13.167 20.5155 13.725 20.5155 14.319C20.5155 14.9137 20.2845 15.4717 19.8645 15.8917C19.0245 16.7317 17.5605 16.7317 16.719 15.891Z" fill="#4F56D3"/>
<path d="M5.79754 6.405C6.25204 6.405 6.62254 6.0345 6.62254 5.58V1.5H6.41254C5.82004 1.5 5.24254 1.74 4.82254 2.16L2.38504 4.59C1.96504 5.01 1.73254 5.5875 1.73254 6.18V6.405H5.79754Z" fill="#4F56D3"/>
</svg>
