<svg width="24" height="24" viewBox="0 0 24 24" fill="none" xmlns="http://www.w3.org/2000/svg">
<path d="M22.4999 9.07499V12.9225C22.4999 13.32 22.1849 13.635 21.7874 13.635H18.6599C17.3249 13.635 16.2524 12.5625 16.2524 11.2275V10.77C16.2524 9.43499 17.3249 8.36249 18.6599 8.36249H21.7874C22.1849 8.36249 22.4999 8.67749 22.4999 9.07499Z" fill="#4F56D3"/>
<path d="M9.5025 14.085C9.5025 14.6385 8.7525 15.1238 7.623 15.3908C7.00875 15.5415 6.27975 15.6285 5.499 15.6285C4.7235 15.6285 3.9945 15.5415 3.38025 15.3908C2.25 15.1238 1.5 14.6385 1.5 14.085C1.5 13.2308 3.291 12.5363 5.499 12.5363C7.7115 12.537 9.5025 13.2308 9.5025 14.085Z" fill="#4F56D3"/>
<path d="M7.8825 16.4858C7.167 16.6598 6.33975 16.7535 5.49825 16.7535C4.66125 16.7535 3.8355 16.6598 3.11175 16.4835C2.40975 16.3178 1.89075 16.0935 1.5 15.8475V16.701C1.5 17.2545 2.24475 17.7353 3.369 18.0068C3.98325 18.162 4.7175 18.2498 5.49825 18.2498C6.28425 18.2498 7.01325 18.162 7.63275 18.0068C8.75775 17.7353 9.50175 17.2545 9.50175 16.701V15.846C9.11025 16.0935 8.58825 16.3185 7.8825 16.4858Z" fill="#4F56D3"/>
<path d="M7.8975 19.101C7.18575 19.2795 6.3525 19.3747 5.49825 19.3747C4.641 19.3747 3.81 19.2787 3.09375 19.098C2.40375 18.9315 1.8885 18.7125 1.5 18.4702V19.3177C1.5 19.8712 2.24475 20.352 3.369 20.628C3.98325 20.7787 4.7175 20.8657 5.49825 20.8657C6.28425 20.8657 7.01325 20.778 7.63275 20.628C8.75775 20.3512 9.50175 19.8705 9.50175 19.3177V18.4695C9.11175 18.7125 8.5935 18.933 7.8975 19.101Z" fill="#4F56D3"/>
<path d="M18.66 7.23751H21.5925V5.82751C21.5925 4.34251 20.385 3.13501 18.9 3.13501H5.73754C4.25254 3.13501 3.04504 4.34251 3.04504 5.82751V11.6955C3.80254 11.5058 4.65079 11.412 5.49829 11.412C7.92529 11.412 10.3905 12.1463 10.6275 13.8053V16.4453V16.7018V18.87H18.9C20.385 18.87 21.5925 17.6625 21.5925 16.1775V14.76H18.66C16.7123 14.76 15.1275 13.1753 15.1275 11.2275V10.77C15.1275 8.82301 16.7123 7.23751 18.66 7.23751ZM10.5705 7.32301H6.70279C6.33004 7.32301 6.02779 7.02076 6.02779 6.64801C6.02779 6.27526 6.33004 5.97301 6.70279 5.97301H10.5698C10.9425 5.97301 11.2448 6.27526 11.2448 6.64801C11.2448 7.02076 10.9433 7.32301 10.5705 7.32301Z" fill="#4F56D3"/>
</svg>
