<svg width="193" height="41" viewBox="0 0 193 41" fill="none" xmlns="http://www.w3.org/2000/svg">
<g clip-path="url(#clip0_11_43)">
<path d="M187.525 10.25H192.941V30.75H187.525V10.25ZM190.272 7.8925C189.488 7.8925 188.827 7.61916 188.291 7.07249C187.754 6.52583 187.486 5.84933 187.486 5.043C187.486 4.23666 187.754 3.56016 188.291 3.0135C188.827 2.46683 189.481 2.1935 190.253 2.1935C191.025 2.1935 191.672 2.46683 192.195 3.0135C192.732 3.56016 193 4.23666 193 5.043C193 5.84933 192.738 6.52583 192.215 7.07249C191.705 7.61916 191.057 7.8925 190.272 7.8925Z" fill="white"/>
<path d="M187.525 10.25H192.941V30.75H187.525V10.25ZM190.272 7.8925C189.488 7.8925 188.827 7.61916 188.291 7.07249C187.754 6.52583 187.486 5.84933 187.486 5.043C187.486 4.23666 187.754 3.56016 188.291 3.0135C188.827 2.46683 189.481 2.1935 190.253 2.1935C191.025 2.1935 191.672 2.46683 192.195 3.0135C192.732 3.56016 193 4.23666 193 5.043C193 5.84933 192.738 6.52583 192.215 7.07249C191.705 7.61916 191.057 7.8925 190.272 7.8925Z" fill="white"/>
<path d="M169.448 41H164.032V10.25H169.448V12.464C170.076 11.6577 170.821 11.0017 171.685 10.496C172.548 9.97668 173.555 9.71701 174.707 9.71701C176.132 9.71701 177.467 9.99718 178.71 10.5575C179.965 11.1178 181.064 11.8968 182.006 12.8945C182.948 13.8785 183.687 15.0197 184.224 16.318C184.76 17.6163 185.028 19.0103 185.028 20.5C185.028 21.9897 184.76 23.3905 184.224 24.7025C183.687 26.0145 182.948 27.1693 182.006 28.167C181.064 29.151 179.965 29.9232 178.71 30.4835C177.467 31.0438 176.132 31.324 174.707 31.324C173.555 31.324 172.548 31.0643 171.685 30.545C170.821 30.0257 170.076 29.3697 169.448 28.577V41ZM174.628 15.1495C173.739 15.1495 172.934 15.3955 172.215 15.8875C171.508 16.3658 170.946 17.0082 170.527 17.8145C170.121 18.6208 169.919 19.516 169.919 20.5C169.919 21.484 170.121 22.386 170.527 23.206C170.946 24.0123 171.508 24.6547 172.215 25.133C172.934 25.6113 173.739 25.8505 174.628 25.8505C175.518 25.8505 176.329 25.6113 177.061 25.133C177.807 24.6547 178.396 24.0123 178.827 23.206C179.272 22.3997 179.494 21.4977 179.494 20.5C179.494 19.5297 179.279 18.6413 178.847 17.835C178.415 17.015 177.827 16.3658 177.081 15.8875C176.348 15.3955 175.531 15.1495 174.628 15.1495Z" fill="white"/>
<path d="M169.448 41H164.032V10.25H169.448V12.464C170.076 11.6577 170.821 11.0017 171.685 10.496C172.548 9.97668 173.555 9.71701 174.707 9.71701C176.132 9.71701 177.467 9.99718 178.71 10.5575C179.965 11.1178 181.064 11.8968 182.006 12.8945C182.948 13.8785 183.687 15.0197 184.224 16.318C184.76 17.6163 185.028 19.0103 185.028 20.5C185.028 21.9897 184.76 23.3905 184.224 24.7025C183.687 26.0145 182.948 27.1693 182.006 28.167C181.064 29.151 179.965 29.9232 178.71 30.4835C177.467 31.0438 176.132 31.324 174.707 31.324C173.555 31.324 172.548 31.0643 171.685 30.545C170.821 30.0257 170.076 29.3697 169.448 28.577V41ZM174.628 15.1495C173.739 15.1495 172.934 15.3955 172.215 15.8875C171.508 16.3658 170.946 17.0082 170.527 17.8145C170.121 18.6208 169.919 19.516 169.919 20.5C169.919 21.484 170.121 22.386 170.527 23.206C170.946 24.0123 171.508 24.6547 172.215 25.133C172.934 25.6113 173.739 25.8505 174.628 25.8505C175.518 25.8505 176.329 25.6113 177.061 25.133C177.807 24.6547 178.396 24.0123 178.827 23.206C179.272 22.3997 179.494 21.4977 179.494 20.5C179.494 19.5297 179.279 18.6413 178.847 17.835C178.415 17.015 177.827 16.3658 177.081 15.8875C176.348 15.3955 175.531 15.1495 174.628 15.1495Z" fill="white"/>
<path d="M154.673 10.25H160.089V30.75H154.654L154.399 28.618C153.888 29.4107 153.234 30.053 152.436 30.545C151.638 31.037 150.703 31.283 149.63 31.283C148.165 31.283 146.798 30.996 145.529 30.422C144.26 29.848 143.142 29.0553 142.174 28.044C141.206 27.0327 140.447 25.8642 139.897 24.5385C139.361 23.1992 139.093 21.7642 139.093 20.2335C139.093 18.7712 139.348 17.4045 139.858 16.1335C140.368 14.8625 141.088 13.7418 142.017 12.7715C142.946 11.8012 144.012 11.0427 145.215 10.496C146.432 9.94933 147.74 9.67599 149.14 9.67599C150.343 9.67599 151.422 9.9425 152.377 10.4755C153.345 11.0085 154.189 11.685 154.909 12.505L154.673 10.25ZM149.493 25.8505C150.382 25.8505 151.187 25.6113 151.906 25.133C152.626 24.6547 153.195 24.0123 153.614 23.206C154.032 22.386 154.242 21.484 154.242 20.5C154.242 19.5023 154.032 18.6003 153.614 17.794C153.195 16.9877 152.626 16.3453 151.906 15.867C151.187 15.3887 150.382 15.1495 149.493 15.1495C148.59 15.1495 147.773 15.3887 147.04 15.867C146.307 16.3453 145.725 16.9945 145.294 17.8145C144.862 18.6208 144.646 19.516 144.646 20.5C144.646 21.484 144.862 22.386 145.294 23.206C145.738 24.0123 146.327 24.6547 147.06 25.133C147.792 25.6113 148.603 25.8505 149.493 25.8505Z" fill="white"/>
<path d="M154.673 10.25H160.089V30.75H154.654L154.399 28.618C153.888 29.4107 153.234 30.053 152.436 30.545C151.638 31.037 150.703 31.283 149.63 31.283C148.165 31.283 146.798 30.996 145.529 30.422C144.26 29.848 143.142 29.0553 142.174 28.044C141.206 27.0327 140.447 25.8642 139.897 24.5385C139.361 23.1992 139.093 21.7642 139.093 20.2335C139.093 18.7712 139.348 17.4045 139.858 16.1335C140.368 14.8625 141.088 13.7418 142.017 12.7715C142.946 11.8012 144.012 11.0427 145.215 10.496C146.432 9.94933 147.74 9.67599 149.14 9.67599C150.343 9.67599 151.422 9.9425 152.377 10.4755C153.345 11.0085 154.189 11.685 154.909 12.505L154.673 10.25ZM149.493 25.8505C150.382 25.8505 151.187 25.6113 151.906 25.133C152.626 24.6547 153.195 24.0123 153.614 23.206C154.032 22.386 154.242 21.484 154.242 20.5C154.242 19.5023 154.032 18.6003 153.614 17.794C153.195 16.9877 152.626 16.3453 151.906 15.867C151.187 15.3887 150.382 15.1495 149.493 15.1495C148.59 15.1495 147.773 15.3887 147.04 15.867C146.307 16.3453 145.725 16.9945 145.294 17.8145C144.862 18.6208 144.646 19.516 144.646 20.5C144.646 21.484 144.862 22.386 145.294 23.206C145.738 24.0123 146.327 24.6547 147.06 25.133C147.792 25.6113 148.603 25.8505 149.493 25.8505Z" fill="white"/>
<path d="M129.471 31.1395C128.398 31.1122 127.351 30.9072 126.331 30.5245C125.311 30.1418 124.421 29.6225 123.662 28.9665C122.904 28.3105 122.361 27.5657 122.034 26.732L124.408 25.666C124.617 26.199 125.003 26.691 125.566 27.142C126.141 27.5793 126.795 27.9347 127.528 28.208C128.261 28.4677 128.987 28.5975 129.706 28.5975C130.504 28.5975 131.25 28.4608 131.943 28.1875C132.636 27.9142 133.199 27.5247 133.631 27.019C134.075 26.4997 134.298 25.8915 134.298 25.1945C134.298 24.4428 134.062 23.8552 133.591 23.4315C133.12 22.9942 132.525 22.6525 131.806 22.4065C131.086 22.1468 130.347 21.9008 129.588 21.6685C128.202 21.2722 126.979 20.8348 125.919 20.3565C124.859 19.8782 124.029 19.27 123.427 18.532C122.838 17.7803 122.544 16.8168 122.544 15.6415C122.544 14.3978 122.877 13.325 123.545 12.423C124.225 11.5073 125.108 10.8035 126.194 10.3115C127.292 9.80583 128.463 9.55299 129.706 9.55299C131.302 9.55299 132.754 9.91516 134.062 10.6395C135.383 11.3638 136.338 12.3273 136.927 13.53L134.71 14.9035C134.474 14.3432 134.101 13.858 133.591 13.448C133.081 13.038 132.499 12.7168 131.845 12.4845C131.204 12.2522 130.55 12.1292 129.883 12.1155C129.045 12.1018 128.267 12.2317 127.548 12.505C126.828 12.7647 126.246 13.1542 125.801 13.6735C125.369 14.1928 125.154 14.8283 125.154 15.58C125.154 16.3317 125.369 16.9057 125.801 17.302C126.233 17.6847 126.815 17.999 127.548 18.245C128.293 18.4773 129.13 18.7507 130.059 19.065C131.25 19.4613 132.368 19.9123 133.415 20.418C134.461 20.9237 135.305 21.5523 135.946 22.304C136.587 23.0557 136.901 24.0055 136.888 25.1535C136.888 26.3835 136.535 27.4563 135.828 28.372C135.122 29.2877 134.206 29.9915 133.081 30.4835C131.956 30.9618 130.753 31.1805 129.471 31.1395Z" fill="white"/>
<path d="M129.471 31.1395C128.398 31.1122 127.351 30.9072 126.331 30.5245C125.311 30.1418 124.421 29.6225 123.662 28.9665C122.904 28.3105 122.361 27.5657 122.034 26.732L124.408 25.666C124.617 26.199 125.003 26.691 125.566 27.142C126.141 27.5793 126.795 27.9347 127.528 28.208C128.261 28.4677 128.987 28.5975 129.706 28.5975C130.504 28.5975 131.25 28.4608 131.943 28.1875C132.636 27.9142 133.199 27.5247 133.631 27.019C134.075 26.4997 134.298 25.8915 134.298 25.1945C134.298 24.4428 134.062 23.8552 133.591 23.4315C133.12 22.9942 132.525 22.6525 131.806 22.4065C131.086 22.1468 130.347 21.9008 129.588 21.6685C128.202 21.2722 126.979 20.8348 125.919 20.3565C124.859 19.8782 124.029 19.27 123.427 18.532C122.838 17.7803 122.544 16.8168 122.544 15.6415C122.544 14.3978 122.877 13.325 123.545 12.423C124.225 11.5073 125.108 10.8035 126.194 10.3115C127.292 9.80583 128.463 9.55299 129.706 9.55299C131.302 9.55299 132.754 9.91516 134.062 10.6395C135.383 11.3638 136.338 12.3273 136.927 13.53L134.71 14.9035C134.474 14.3432 134.101 13.858 133.591 13.448C133.081 13.038 132.499 12.7168 131.845 12.4845C131.204 12.2522 130.55 12.1292 129.883 12.1155C129.045 12.1018 128.267 12.2317 127.548 12.505C126.828 12.7647 126.246 13.1542 125.801 13.6735C125.369 14.1928 125.154 14.8283 125.154 15.58C125.154 16.3317 125.369 16.9057 125.801 17.302C126.233 17.6847 126.815 17.999 127.548 18.245C128.293 18.4773 129.13 18.7507 130.059 19.065C131.25 19.4613 132.368 19.9123 133.415 20.418C134.461 20.9237 135.305 21.5523 135.946 22.304C136.587 23.0557 136.901 24.0055 136.888 25.1535C136.888 26.3835 136.535 27.4563 135.828 28.372C135.122 29.2877 134.206 29.9915 133.081 30.4835C131.956 30.9618 130.753 31.1805 129.471 31.1395Z" fill="white"/>
<path d="M120.059 13.12H115.369L115.349 30.75H112.602L112.622 13.12H109.07V10.25H112.622L112.602 3.81299H115.349L115.369 10.25H120.059V13.12Z" fill="white"/>
<path d="M120.059 13.12H115.369L115.349 30.75H112.602L112.622 13.12H109.07V10.25H112.622L112.602 3.81299H115.349L115.369 10.25H120.059V13.12Z" fill="white"/>
<path d="M97.2801 31.283C95.4749 31.283 93.8266 30.7978 92.3353 29.8275C90.857 28.8572 89.6732 27.5588 88.7836 25.9325C87.9071 24.2925 87.4689 22.4817 87.4689 20.5C87.4689 18.9967 87.724 17.5958 88.2342 16.2975C88.7443 14.9855 89.4442 13.8375 90.3338 12.8535C91.2364 11.8558 92.2829 11.0768 93.4734 10.5165C94.6638 9.95616 95.9327 9.67599 97.2801 9.67599C98.7322 9.67599 100.067 9.97666 101.283 10.578C102.513 11.1793 103.566 12.0198 104.442 13.0995C105.332 14.1792 105.999 15.4433 106.444 16.892C106.902 18.3407 107.091 19.9055 107.013 21.5865H90.373C90.53 22.8848 90.9224 24.0465 91.5504 25.0715C92.1914 26.0965 93.0024 26.9097 93.9836 27.511C94.9778 28.0987 96.0766 28.3993 97.2801 28.413C98.5883 28.413 99.7657 28.0577 100.812 27.347C101.872 26.6363 102.722 25.6592 103.363 24.4155L106.15 25.092C105.365 26.9097 104.181 28.3993 102.598 29.561C101.015 30.709 99.2424 31.283 97.2801 31.283ZM90.2945 19.27H104.246C104.155 17.999 103.782 16.8373 103.128 15.785C102.487 14.719 101.656 13.8717 100.636 13.243C99.6152 12.6007 98.4967 12.2795 97.2801 12.2795C96.0635 12.2795 94.9516 12.5938 93.9443 13.2225C92.937 13.8375 92.1129 14.678 91.4719 15.744C90.8309 16.7963 90.4384 17.9717 90.2945 19.27Z" fill="white"/>
<path d="M97.2801 31.283C95.4749 31.283 93.8266 30.7978 92.3353 29.8275C90.857 28.8572 89.6732 27.5588 88.7836 25.9325C87.9071 24.2925 87.4689 22.4817 87.4689 20.5C87.4689 18.9967 87.724 17.5958 88.2342 16.2975C88.7443 14.9855 89.4442 13.8375 90.3338 12.8535C91.2364 11.8558 92.2829 11.0768 93.4734 10.5165C94.6638 9.95616 95.9327 9.67599 97.2801 9.67599C98.7322 9.67599 100.067 9.97666 101.283 10.578C102.513 11.1793 103.566 12.0198 104.442 13.0995C105.332 14.1792 105.999 15.4433 106.444 16.892C106.902 18.3407 107.091 19.9055 107.013 21.5865H90.373C90.53 22.8848 90.9224 24.0465 91.5504 25.0715C92.1914 26.0965 93.0024 26.9097 93.9836 27.511C94.9778 28.0987 96.0766 28.3993 97.2801 28.413C98.5883 28.413 99.7657 28.0577 100.812 27.347C101.872 26.6363 102.722 25.6592 103.363 24.4155L106.15 25.092C105.365 26.9097 104.181 28.3993 102.598 29.561C101.015 30.709 99.2424 31.283 97.2801 31.283ZM90.2945 19.27H104.246C104.155 17.999 103.782 16.8373 103.128 15.785C102.487 14.719 101.656 13.8717 100.636 13.243C99.6152 12.6007 98.4967 12.2795 97.2801 12.2795C96.0635 12.2795 94.9516 12.5938 93.9443 13.2225C92.937 13.8375 92.1129 14.678 91.4719 15.744C90.8309 16.7963 90.4384 17.9717 90.2945 19.27Z" fill="white"/>
<path d="M86.1885 30.75H83.0293L77.535 20.8485L73.6105 25.748V30.75H70.8633V0H73.6105V21.279L82.4602 10.25H86.0512L79.3991 18.5115L86.1885 30.75Z" fill="white"/>
<path d="M86.1885 30.75H83.0293L77.535 20.8485L73.6105 25.748V30.75H70.8633V0H73.6105V21.279L82.4602 10.25H86.0512L79.3991 18.5115L86.1885 30.75Z" fill="white"/>
<path d="M57.2962 30.75V10.25H60.0434V13.079C60.7367 12.0403 61.6393 11.2135 62.7513 10.5985C63.8632 9.9835 65.0733 9.67599 66.3814 9.67599C67.1402 9.67599 67.8727 9.7785 68.5791 9.98349L67.4607 12.833C66.9112 12.6553 66.3749 12.5665 65.8516 12.5665C64.792 12.5665 63.8174 12.8398 62.9279 13.3865C62.0514 13.9332 61.3515 14.6643 60.8283 15.58C60.305 16.4957 60.0434 17.5138 60.0434 18.6345V30.75H57.2962Z" fill="white"/>
<path d="M57.2962 30.75V10.25H60.0434V13.079C60.7367 12.0403 61.6393 11.2135 62.7513 10.5985C63.8632 9.9835 65.0733 9.67599 66.3814 9.67599C67.1402 9.67599 67.8727 9.7785 68.5791 9.98349L67.4607 12.833C66.9112 12.6553 66.3749 12.5665 65.8516 12.5665C64.792 12.5665 63.8174 12.8398 62.9279 13.3865C62.0514 13.9332 61.3515 14.6643 60.8283 15.58C60.305 16.4957 60.0434 17.5138 60.0434 18.6345V30.75H57.2962Z" fill="white"/>
<path d="M50.6224 10.25H53.3696V30.75H50.6224L50.5243 26.937C49.8833 28.2353 48.9872 29.2877 47.836 30.094C46.6848 30.8867 45.3112 31.283 43.7153 31.283C42.2763 31.283 40.9289 31.0028 39.673 30.4425C38.4172 29.8685 37.3118 29.0827 36.3568 28.085C35.4019 27.0873 34.6562 25.9325 34.1199 24.6205C33.5835 23.3085 33.3153 21.9008 33.3153 20.3975C33.3153 18.9215 33.577 17.5343 34.1003 16.236C34.6366 14.9377 35.3692 13.7965 36.298 12.8125C37.2399 11.8285 38.3256 11.0632 39.5553 10.5165C40.7981 9.95616 42.1259 9.67599 43.5387 9.67599C45.1739 9.67599 46.5998 10.086 47.8164 10.906C49.033 11.7123 50.001 12.7715 50.7205 14.0835L50.6224 10.25ZM43.6564 28.495C45.0562 28.495 46.2597 28.1397 47.267 27.429C48.2742 26.7047 49.0461 25.7343 49.5824 24.518C50.1318 23.3017 50.4066 21.9623 50.4066 20.5C50.4066 18.9967 50.1318 17.6437 49.5824 16.441C49.033 15.2247 48.2546 14.2612 47.2473 13.5505C46.24 12.8398 45.0431 12.4845 43.6564 12.4845C42.2698 12.4845 41.0008 12.8467 39.8496 13.571C38.7115 14.2817 37.8024 15.2452 37.1221 16.4615C36.455 17.6778 36.1214 19.024 36.1214 20.5C36.1214 21.9897 36.468 23.3427 37.1614 24.559C37.8547 25.7617 38.7704 26.7183 39.9085 27.429C41.0597 28.1397 42.309 28.495 43.6564 28.495Z" fill="white"/>
<path d="M50.6224 10.25H53.3696V30.75H50.6224L50.5243 26.937C49.8833 28.2353 48.9872 29.2877 47.836 30.094C46.6848 30.8867 45.3112 31.283 43.7153 31.283C42.2763 31.283 40.9289 31.0028 39.673 30.4425C38.4172 29.8685 37.3118 29.0827 36.3568 28.085C35.4019 27.0873 34.6562 25.9325 34.1199 24.6205C33.5835 23.3085 33.3153 21.9008 33.3153 20.3975C33.3153 18.9215 33.577 17.5343 34.1003 16.236C34.6366 14.9377 35.3692 13.7965 36.298 12.8125C37.2399 11.8285 38.3256 11.0632 39.5553 10.5165C40.7981 9.95616 42.1259 9.67599 43.5387 9.67599C45.1739 9.67599 46.5998 10.086 47.8164 10.906C49.033 11.7123 50.001 12.7715 50.7205 14.0835L50.6224 10.25ZM43.6564 28.495C45.0562 28.495 46.2597 28.1397 47.267 27.429C48.2742 26.7047 49.0461 25.7343 49.5824 24.518C50.1318 23.3017 50.4066 21.9623 50.4066 20.5C50.4066 18.9967 50.1318 17.6437 49.5824 16.441C49.033 15.2247 48.2546 14.2612 47.2473 13.5505C46.24 12.8398 45.0431 12.4845 43.6564 12.4845C42.2698 12.4845 41.0008 12.8467 39.8496 13.571C38.7115 14.2817 37.8024 15.2452 37.1221 16.4615C36.455 17.6778 36.1214 19.024 36.1214 20.5C36.1214 21.9897 36.468 23.3427 37.1614 24.559C37.8547 25.7617 38.7704 26.7183 39.9085 27.429C41.0597 28.1397 42.309 28.495 43.6564 28.495Z" fill="white"/>
<path d="M0 30.75V10.25H2.74715V13.079C3.45356 12.0403 4.3562 11.2135 5.45506 10.5985C6.55392 9.9835 7.75743 9.67599 9.0656 9.67599C10.5438 9.67599 11.8978 10.0587 13.1275 10.824C14.3571 11.5757 15.3186 12.5802 16.012 13.8375C16.7053 12.5802 17.6603 11.5757 18.8769 10.824C20.0935 10.0587 21.4409 9.67599 22.9191 9.67599C24.3973 9.67599 25.7447 10.0518 26.9613 10.8035C28.1779 11.5552 29.146 12.5665 29.8655 13.8375C30.585 15.1085 30.9447 16.5162 30.9447 18.0605V30.75H28.1975V18.696C28.1975 17.6027 27.9425 16.5913 27.4323 15.662C26.9221 14.7327 26.2353 13.9878 25.3719 13.4275C24.5216 12.8535 23.5732 12.5665 22.5266 12.5665C21.4801 12.5665 20.5252 12.833 19.6618 13.366C18.8114 13.8853 18.1312 14.6097 17.621 15.539C17.1108 16.4547 16.8557 17.507 16.8557 18.696V30.75H14.1086V18.696C14.1086 17.507 13.8535 16.4547 13.3433 15.539C12.8331 14.6097 12.1463 13.8853 11.2829 13.366C10.4196 12.833 9.46459 12.5665 8.41806 12.5665C7.38461 12.5665 6.43618 12.8535 5.57279 13.4275C4.7094 13.9878 4.02262 14.7327 3.51243 15.662C3.00224 16.5913 2.74715 17.6027 2.74715 18.696V30.75H0Z" fill="white"/>
<path d="M0 30.75V10.25H2.74715V13.079C3.45356 12.0403 4.3562 11.2135 5.45506 10.5985C6.55392 9.9835 7.75743 9.67599 9.0656 9.67599C10.5438 9.67599 11.8978 10.0587 13.1275 10.824C14.3571 11.5757 15.3186 12.5802 16.012 13.8375C16.7053 12.5802 17.6603 11.5757 18.8769 10.824C20.0935 10.0587 21.4409 9.67599 22.9191 9.67599C24.3973 9.67599 25.7447 10.0518 26.9613 10.8035C28.1779 11.5552 29.146 12.5665 29.8655 13.8375C30.585 15.1085 30.9447 16.5162 30.9447 18.0605V30.75H28.1975V18.696C28.1975 17.6027 27.9425 16.5913 27.4323 15.662C26.9221 14.7327 26.2353 13.9878 25.3719 13.4275C24.5216 12.8535 23.5732 12.5665 22.5266 12.5665C21.4801 12.5665 20.5252 12.833 19.6618 13.366C18.8114 13.8853 18.1312 14.6097 17.621 15.539C17.1108 16.4547 16.8557 17.507 16.8557 18.696V30.75H14.1086V18.696C14.1086 17.507 13.8535 16.4547 13.3433 15.539C12.8331 14.6097 12.1463 13.8853 11.2829 13.366C10.4196 12.833 9.46459 12.5665 8.41806 12.5665C7.38461 12.5665 6.43618 12.8535 5.57279 13.4275C4.7094 13.9878 4.02262 14.7327 3.51243 15.662C3.00224 16.5913 2.74715 17.6027 2.74715 18.696V30.75H0Z" fill="white"/>
</g>
<defs>
<clipPath id="clip0_11_43">
<rect width="193" height="41" fill="white"/>
</clipPath>
</defs>
</svg>
