<svg>
		<symbol id="menu" viewBox="0 0 24 24" version="1.1" xmlns="http://www.w3.org/2000/svg" xmlns:xlink="http://www.w3.org/1999/xlink">
				<path d="M12 1.5C6.2025 1.5 1.5 6.2025 1.5 12C1.5 17.7975 6.2025 22.5 12 22.5C17.7975 22.5 22.5 17.7975 22.5 12C22.5 6.2025 17.7975 1.5 12 1.5ZM7.4025 16.1407H6.78C6.40725 16.1407 6.105 15.8385 6.105 15.4657C6.105 15.093 6.40725 14.7908 6.78 14.7908H7.4025C7.77525 14.7908 8.0775 15.093 8.0775 15.4657C8.0775 15.8385 7.77525 16.1407 7.4025 16.1407ZM7.4025 12.675H6.78C6.40725 12.675 6.105 12.3728 6.105 12C6.105 11.6272 6.40725 11.325 6.78 11.325H7.4025C7.77525 11.325 8.0775 11.6272 8.0775 12C8.0775 12.3728 7.77525 12.675 7.4025 12.675ZM7.4025 9.21H6.78C6.40725 9.21 6.105 8.90775 6.105 8.535C6.105 8.16225 6.40725 7.86 6.78 7.86H7.4025C7.77525 7.86 8.0775 8.16225 8.0775 8.535C8.0775 8.90775 7.77525 9.21 7.4025 9.21ZM17.22 16.1407H10.035C9.66225 16.1407 9.36 15.8385 9.36 15.4657C9.36 15.093 9.66225 14.7908 10.035 14.7908H17.22C17.5927 14.7908 17.895 15.093 17.895 15.4657C17.895 15.8385 17.5927 16.1407 17.22 16.1407ZM17.22 12.675H10.035C9.66225 12.675 9.36 12.3728 9.36 12C9.36 11.6272 9.66225 11.325 10.035 11.325H17.22C17.5927 11.325 17.895 11.6272 17.895 12C17.895 12.3728 17.5927 12.675 17.22 12.675ZM17.22 9.21H10.035C9.66225 9.21 9.36 8.90775 9.36 8.535C9.36 8.16225 9.66225 7.86 10.035 7.86H17.22C17.5927 7.86 17.895 8.16225 17.895 8.535C17.895 8.90775 17.5927 9.21 17.22 9.21Z"/>
		</symbol>
		<symbol id="info" viewBox="0 0 24 24" version="1.1" xmlns="http://www.w3.org/2000/svg" xmlns:xlink="http://www.w3.org/1999/xlink">
				<path d="M12 1.5C6.201 1.5 1.5 6.201 1.5 12C1.5 17.799 6.201 22.5 12 22.5C17.799 22.5 22.5 17.799 22.5 12C22.5 6.201 17.799 1.5 12 1.5ZM11.5898 6.96075C12.0922 6.96075 12.5002 7.368 12.5002 7.87125C12.5002 8.37375 12.093 8.78175 11.5898 8.78175C11.0872 8.78175 10.6793 8.3745 10.6793 7.87125C10.6793 7.36875 11.0872 6.96075 11.5898 6.96075ZM13.3207 16.8855H10.839C10.4662 16.8855 10.164 16.5833 10.164 16.2105C10.164 15.8378 10.4662 15.5355 10.839 15.5355H11.4052V11.1525H11.1C10.7273 11.1525 10.425 10.8503 10.425 10.4775C10.425 10.1048 10.7273 9.8025 11.1 9.8025H12.0802C12.453 9.8025 12.7552 10.1048 12.7552 10.4775V15.5363H13.3207C13.6935 15.5363 13.9957 15.8385 13.9957 16.2113C13.9957 16.584 13.6935 16.8855 13.3207 16.8855Z"/>
		</symbol>
		<symbol id="close" viewBox="0 0 24 24" version="1.1" xmlns="http://www.w3.org/2000/svg" xmlns:xlink="http://www.w3.org/1999/xlink">
				<path d="M12 1.5C6.201 1.5 1.5 6.201 1.5 12C1.5 17.799 6.201 22.5 12 22.5C17.799 22.5 22.5 17.799 22.5 12C22.5 6.201 17.799 1.5 12 1.5ZM15.0953 14.1405C15.3593 14.4045 15.3593 14.832 15.0953 15.0953C14.9633 15.2273 14.7907 15.2933 14.6182 15.2933C14.4457 15.2933 14.2732 15.2273 14.1412 15.0953L12 12.9548L9.85875 15.096C9.72675 15.228 9.55425 15.294 9.38175 15.294C9.20925 15.294 9.03675 15.228 8.90475 15.096C8.64075 14.832 8.64075 14.4045 8.90475 14.1412L11.0452 12L8.90475 9.8595C8.64075 9.5955 8.64075 9.168 8.90475 8.90475C9.16875 8.6415 9.5955 8.64075 9.85875 8.90475L12 11.0452L14.1412 8.904C14.4052 8.64 14.832 8.64 15.0953 8.904C15.3585 9.168 15.3593 9.5955 15.0953 9.85875L12.9548 12L15.0953 14.1405Z"/>
		</symbol>
		<symbol id="undo" viewBox="0 0 24 24" version="1.1" xmlns="http://www.w3.org/2000/svg" xmlns:xlink="http://www.w3.org/1999/xlink">
				<path d="M12 1.5C6.201 1.5 1.5 6.201 1.5 12C1.5 17.799 6.201 22.5 12 22.5C17.799 22.5 22.5 17.799 22.5 12C22.5 6.201 17.799 1.5 12 1.5ZM14.1405 15.3953H12.6C12.2272 15.3953 11.925 15.093 11.925 14.7203C11.925 14.3475 12.2272 14.0452 12.6 14.0452H14.1405C14.811 14.0452 15.357 13.4992 15.357 12.8287C15.357 12.1582 14.811 11.6122 14.1405 11.6122H9.5985L10.1055 12.1193C10.3695 12.3825 10.3695 12.81 10.1055 13.0732C9.9735 13.2052 9.801 13.2712 9.6285 13.2712C9.456 13.2712 9.2835 13.2052 9.1515 13.0732L7.4925 11.4142C7.2285 11.151 7.2285 10.7235 7.4925 10.4602L9.1515 8.80125C9.4155 8.53725 9.84225 8.53725 10.1055 8.80125C10.3695 9.0645 10.3695 9.492 10.1055 9.75525L9.5985 10.2622H14.1405C15.5557 10.2622 16.7062 11.4135 16.7062 12.828C16.7062 14.2425 15.555 15.3953 14.1405 15.3953Z"/>
		</symbol>
		<symbol id="add" viewBox="0 0 32 32" version="1.1" xmlns="http://www.w3.org/2000/svg" xmlns:xlink="http://www.w3.org/1999/xlink">
				<path d="M16 3C8.82 3 3 8.82 3 16C3 23.18 8.82 29 16 29C23.18 29 29 23.18 29 16C29 8.82 23.18 3 16 3ZM20.938 16.9H16.9V20.937C16.9 21.434 16.497 21.837 16 21.837C15.503 21.837 15.1 21.434 15.1 20.937V16.9H11.062C10.565 16.9 10.162 16.497 10.162 16C10.162 15.503 10.565 15.1 11.062 15.1H15.1V11.063C15.1 10.566 15.503 10.163 16 10.163C16.497 10.163 16.9 10.566 16.9 11.063V15.1H20.938C21.435 15.1 21.838 15.503 21.838 16C21.838 16.497 21.435 16.9 20.938 16.9Z"/>
		</symbol>
		<symbol id="remove" viewBox="0 0 32 32" version="1.1" xmlns="http://www.w3.org/2000/svg" xmlns:xlink="http://www.w3.org/1999/xlink">
				<path d="M16 3C8.82 3 3 8.82 3 16C3 23.18 8.82 29 16 29C23.18 29 29 23.18 29 16C29 8.82 23.18 3 16 3ZM20.938 16.9C13.2657 16.9 18.7343 16.9 11.062 16.9C10.565 16.9 10.162 16.497 10.162 16C10.162 15.503 10.565 15.1 11.062 15.1C18.7343 15.1 13.2657 15.1 20.938 15.1C21.435 15.1 21.838 15.503 21.838 16C21.838 16.497 21.435 16.9 20.938 16.9Z"/>
		</symbol>
		<symbol id="copy" viewBox="0 0 24 24" version="1.1" xmlns="http://www.w3.org/2000/svg" xmlns:xlink="http://www.w3.org/1999/xlink">
				<path d="M19.4999,7.13879 C20.1905,7.13879 20.7499,7.69817 20.7499,8.38879 L20.7499,19.5 C20.7499,20.1907 20.1905,20.75 19.4999,20.75 L8.38867,20.75 C7.69805,20.75 7.13867,20.1907 7.13867,19.5 L7.13867,8.38879 C7.13867,7.69817 7.69805,7.13879 8.38867,7.13879 L19.4999,7.13879 Z M15.6125,3.25 C16.3,3.25 16.8625,3.8125 16.8625,4.5 L16.8625,6.01375 L8.38937,6.01375 C7.07937,6.01375 6.01437,7.07938 6.01437,8.38875 L6.01437,16.8625 L4.5,16.8625 C3.8125,16.8625 3.25,16.3 3.25,15.6125 L3.25,4.5 C3.25,3.8125 3.8125,3.25 4.5,3.25 Z"></path>
		</symbol>
		<symbol id="copy-active" viewBox="0 0 24 24" version="1.1" xmlns="http://www.w3.org/2000/svg" xmlns:xlink="http://www.w3.org/1999/xlink">
				<path d="M19.4999,7.13873 C20.1905,7.13873 20.7499,7.69873 20.7499,8.38873 L20.7499,19.5 C20.7499,20.1906 20.1905,20.75 19.4999,20.75 L8.38867,20.75 C7.69805,20.75 7.13867,20.1906 7.13867,19.5 L7.13867,8.38873 C7.13867,7.69811 7.69805,7.13873 8.38867,7.13873 Z M15.6125,3.25 C16.3,3.25 16.8625,3.8125 16.8625,4.5 L16.8625,6.01375 L8.38937,6.01375 C7.07937,6.01375 6.01437,7.07938 6.01437,8.38875 L6.01437,16.8625 L4.5,16.8625 C3.8125,16.8625 3.25,16.3 3.25,15.6125 L3.25,4.5 C3.25,3.8125 3.8125,3.25 4.5,3.25 Z M16.693,12.2525 C16.4987,12.0106 16.1443,11.9725 15.9024,12.1669 L13.0237,14.4862 L12.0699,13.2694 C11.87867,13.0262 11.5243,12.9819 11.27992,13.1744 C11.03555,13.3662 10.99242,13.7194 11.1843,13.9644 L12.4899,15.63 C12.5824,15.7487 12.7193,15.825 12.8687,15.8419 C12.8899,15.8444 12.9112,15.8456 12.9324,15.8456 C13.0599,15.8456 13.1843,15.8019 13.2849,15.7212 L16.6074,13.0444 C16.8493,12.8487 16.8874,12.495 16.693,12.2525 Z"></path>
		</symbol>
</svg>
